<svg width="22" height="22" viewBox="0 0 22 22" fill="none" xmlns="http://www.w3.org/2000/svg">
<path d="M21.2067 2.5125L15.6667 4.455V7.5H14.3333V4.7175L8.33332 1.26V3.75H6.99999V0.952499L0.55332 3.9525C0.489407 3.98178 0.434514 4.03148 0.395418 4.09545C0.356322 4.15943 0.334734 4.23488 0.33332 4.3125V19.8375C0.332945 19.9036 0.347219 19.9687 0.37485 20.027C0.402481 20.0853 0.442598 20.135 0.491572 20.1715C0.540546 20.2079 0.596831 20.2301 0.655338 20.236C0.713844 20.2418 0.772724 20.2312 0.826653 20.205L6.99999 17.34V14.25H8.33332V17.6475L14.3333 21.105V18H15.6667V20.8425L21.42 18.8175C21.4921 18.7918 21.5549 18.7408 21.5993 18.672C21.6437 18.6031 21.6673 18.5201 21.6667 18.435V2.895C21.6672 2.83222 21.6544 2.77021 21.6295 2.71403C21.6046 2.65785 21.5682 2.6091 21.5234 2.57179C21.4785 2.53447 21.4264 2.50965 21.3713 2.49934C21.3163 2.48904 21.2599 2.49354 21.2067 2.5125V2.5125ZM8.33332 12.75H6.99999V9.75H8.33332V12.75ZM8.33332 8.25H6.99999V5.25H8.33332V8.25ZM15.6667 16.5H14.3333V13.5H15.6667V16.5ZM15.6667 12H14.3333V9H15.6667V12Z" fill="#A9AEBA"/>
</svg>
