<svg width="27" height="35" viewBox="0 0 36 36" fill="none" xmlns="http://www.w3.org/2000/svg">
<path d="M33.3193 4.875V31.1318C33.3193 32.335 32.335 33.3193 31.1318 33.3193H4.875C3.67188 33.3193 2.6875 32.335 2.6875 31.1318V4.875C2.6875 3.67188 3.67188 2.6875 4.875 2.6875H9.25V0.5H13.625V2.6875H22.375V0.5H26.75V2.6875H31.1318C32.335 2.6875 33.3193 3.67188 33.3193 4.875ZM28.9375 28.9375V20.1875H20.1875V28.9375H28.9375ZM31.125 4.875H26.75V7.0625H22.375V4.875H13.625V7.0625H9.25V4.875H4.88184L4.875 4.88184V11.4375H31.1318V4.88184L31.125 4.875ZM4.875 13.625V31.125L4.88184 31.1318L31.1318 31.125V13.625H4.875Z" fill="black" fill-opacity="0.87"/>
</svg>
