<svg width="27" height="35" viewBox="0 0 37 38" fill="none" xmlns="http://www.w3.org/2000/svg">
<path d="M30.5625 2.375H23.0035C22.2014 0.957422 20.7127 0 19 0C17.2873 0 15.7986 0.957422 14.9965 2.375H7.4375C6.1584 2.375 5.125 3.43633 5.125 4.75V33.25C5.125 34.5637 6.1584 35.625 7.4375 35.625H30.5625C31.8416 35.625 32.875 34.5637 32.875 33.25V4.75C32.875 3.43633 31.8416 2.375 30.5625 2.375ZM19 2.375C20.2791 2.375 21.3125 3.43633 21.3125 4.75H16.6875C16.6875 3.43633 17.7209 2.375 19 2.375ZM7.4375 4.75H12.0625V9.5H25.9375V4.75H30.5625V33.25H7.4375V4.75ZM9.75 16.625V14.25H28.25V16.625H9.75ZM9.75 19V21.375H28.25V19H9.75ZM9.75 26.125V23.75H28.25V26.125H9.75ZM9.75 28.5V30.875H28.25V28.5H9.75Z" fill="black" fill-opacity="0.87"/>
</svg>
