<svg width="27" height="35" viewBox="0 0 36 36" fill="none" xmlns="http://www.w3.org/2000/svg">
<path d="M29.6109 32.2344C29.5148 32.4307 29.3739 32.5939 29.2031 32.7066C29.0323 32.8194 28.838 32.8775 28.6406 32.875H1.35939C1.162 32.8775 0.967676 32.8194 0.7969 32.7066C0.626125 32.5939 0.48523 32.4307 0.389075 32.2344C0.286013 32.0413 0.231506 31.8197 0.231506 31.5938C0.231506 31.3678 0.286013 31.1462 0.389075 30.9531C2.48823 26.8348 5.84827 23.7437 9.82501 22.2727C7.91887 20.9817 6.43759 19.0138 5.60874 16.6711C4.7799 14.3284 4.64933 11.7406 5.23709 9.30522C5.82485 6.86983 7.09844 4.72158 8.8622 3.19048C10.626 1.65938 12.7823 0.830139 15 0.830139C17.2177 0.830139 19.3741 1.65938 21.1378 3.19048C22.9016 4.72158 24.1752 6.86983 24.7629 9.30522C25.3507 11.7406 25.2201 14.3284 24.3913 16.6711C23.5624 19.0138 22.0812 20.9817 20.175 22.2727C24.1518 23.7437 27.5118 26.8348 29.6109 30.9531C29.714 31.1462 29.7685 31.3678 29.7685 31.5938C29.7685 31.8197 29.714 32.0413 29.6109 32.2344Z" fill="black"/>
</svg>
