<svg width="22" height="26" viewBox="0 0 22 26" fill="none" xmlns="http://www.w3.org/2000/svg">
<path d="M21.5 23V5.5C21.5 4.12125 20.4535 3 19.1667 3H16.8333V0.5H14.5V3H7.5V0.5H5.16667V3H2.83333C1.5465 3 0.5 4.12125 0.5 5.5V23C0.5 24.3788 1.5465 25.5 2.83333 25.5H19.1667C20.4535 25.5 21.5 24.3788 21.5 23ZM7.5 20.5H5.16667V18H7.5V20.5ZM7.5 15.5H5.16667V13H7.5V15.5ZM12.1667 20.5H9.83333V18H12.1667V20.5ZM12.1667 15.5H9.83333V13H12.1667V15.5ZM16.8333 20.5H14.5V18H16.8333V20.5ZM16.8333 15.5H14.5V13H16.8333V15.5ZM19.1667 9.25H2.83333V6.75H19.1667V9.25Z" fill="#A9AEBA"/>
</svg>
